<svg width="407" height="34" xmlns="http://www.w3.org/2000/svg">
  <g>
    <title>background</title>
    <rect fill="none" id="canvas_background" height="36" width="409" y="-1" x="-1"/>
  </g>
  <g>
    <title>Layer 1</title>
    <path id="svg_1" fill="white" d="m1121.3,0c-14.4,0 -14.4,14 -28.7,14c-14.3,0 -14.4,-14 -28.7,-14c-14.3,0 -14.4,14 -28.7,14c-14.4,0 -14.4,-14 -28.8,-14c-14.4,0 -14.4,14 -28.7,14c-14.4,0 -14.4,-14 -28.7,-14c-14.4,0 -14.4,14 -28.7,14c-14.3,0 -14.7,-14 -29,-14c-14.4,0 -14.4,14 -28.7,14c-14.3,0 -14.5,-14 -28.8,-14c-14.4,0 -14.4,14 -28.7,14c-14.4,0 -14.4,-14 -28.8,-14c-14.4,0 -14.4,14 -28.7,14c-14.4,0 -14.4,-14 -28.7,-14c-14.3,0 -14.5,14 -28.9,14c-14.4,0 -14.4,-14 -28.7,-14c-14.4,0 -14.4,14 -28.7,14c-14.4,0 -14.4,-14 -28.8,-14c-14.4,0 -14.4,14 -28.7,14c-14.4,0 -14.4,-14 -28.7,-14c-14.4,0 -14.4,14 -28.7,14c-14.4,0 -14.4,-14 -28.7,-14c-14.4,0 -14.4,14 -28.8,14c-14.4,0 -14.4,-14 -28.8,-14c-14.4,0 -14.4,14 -28.8,14c-14.4,0 -14.4,-14 -28.8,-14c-14.4,0 -14.4,14 -28.8,14c-14.4,0 -14.4,-14 -28.8,-14c-14.4,0 -14.4,14 -28.8,14c-14.4,0 -14.4,-14 -28.8,-14c-14.4,0 -14.4,14 -28.7,14c-14.4,0 -14.4,-14 -28.8,-14c-14.4,0 -14.4,14 -28.8,14c-14.4,0 -14.4,-14 -28.8,-14c-14.4,0 -14.4,14 -28.8,14c-14.4,0 -14.4,-14 -28.8,-14c-14,0 -14,14 -28.4,14c-14.4,0 -14.4,-14 -28.7,-14c-14.3,0 -14.4,14 -28.8,14l0,20l1150,0l0,-20c-14.4,0 -14.4,-14 -28.7,-14z"/>
  </g>
</svg>
